<svg id="Layer_1" data-name="Layer 1" xmlns="http://www.w3.org/2000/svg" viewBox="0 0 100 100"><defs><style>.cls-1{fill:#d80783;}.cls-2{fill:#fc2b9e;}.cls-3{fill:#473232;}.cls-4{fill:#fff;}.cls-5{fill:#f4d9d9;}.cls-6{fill:#d12f2f;}</style></defs><path class="cls-1" d="M58.71,33.35a29.77,29.77,0,0,0-2.15,3,24.6,24.6,0,0,1-2.25,2.94c-.34.4-.69.81-1,1.23s-.62,1.07-1,1.52a15.44,15.44,0,0,1-1.36,1.19q-.73.69-1.44,1.41h0a2.56,2.56,0,0,1-2.53-.19,10.92,10.92,0,0,0,1.35-1.28,22,22,0,0,0,3.47-5.68,62.38,62.38,0,0,0,4.1-12l.54.3h0a19.49,19.49,0,0,1,2,1.54A4.48,4.48,0,0,1,60,29.9,4.62,4.62,0,0,1,58.71,33.35Z"/><path class="cls-2" d="M61,31a4.59,4.59,0,0,1-1,2.68c-.55.8-1.23,1.5-1.78,2.29-.41.58-.75,1.21-1.14,1.8-1.09,1.63-2.61,3-3.6,4.66a3.82,3.82,0,0,1-.31.47,3.34,3.34,0,0,1-.4.35,27.55,27.55,0,0,0-2.44,2.27l-.31.23a3,3,0,0,1-2.31-.27c-.47-.2-.94-.41-1.4-.63-.72-.35-1.42-.72-2.1-1.13-.49-.29-1-.59-1.45-.91l0,0A28.43,28.43,0,0,1,40,40.77a2.6,2.6,0,0,1-.89-1.14.63.63,0,0,1,0-.19,3.16,3.16,0,0,1,.15-1A83.26,83.26,0,0,0,42,30.54c.26-.81.51-1.61.82-2.39s.62-1.37.9-2.06a17.42,17.42,0,0,1,1.08-2.51,3.22,3.22,0,0,1,2.1-1.6,4.28,4.28,0,0,1,2.07.35,43.08,43.08,0,0,1,4.85,2.07h0c.5.25,1,.5,1.48.77l.5.29a62.38,62.38,0,0,1-4.1,12,22,22,0,0,1-3.47,5.68,10.92,10.92,0,0,1-1.35,1.28,2.56,2.56,0,0,0,2.53.19h0q.71-.72,1.44-1.41A15.44,15.44,0,0,0,52.28,42c.4-.45.66-1,1-1.52s.67-.83,1-1.23a24.6,24.6,0,0,0,2.25-2.94,29.77,29.77,0,0,1,2.15-3A4.62,4.62,0,0,0,60,29.9a4.48,4.48,0,0,0-1.59-2.58,19.49,19.49,0,0,0-2-1.54c.34.2.67.39,1,.6a24.47,24.47,0,0,1,2.39,2,5.45,5.45,0,0,1,.56.73A3.71,3.71,0,0,1,61,31Z"/><path class="cls-1" d="M67.19,6.1c-1.28,3.34-2.26,6.82-3.77,10.07A72.53,72.53,0,0,1,58,25.46l-1.9-.93.18-.85-.44.72-1.4-.67q3.42-4.35,6.43-9c2-3.07,3.91-6.39,4.33-10Z"/><path class="cls-2" d="M67.66,6.38l-.29-.19-.17-.12-2-1.35-.25-.17L61.71,2.39l-.22-.13a.5.5,0,0,0-.38,0,.71.71,0,0,0-.27.25c-4.34,5.8-7.76,12.24-11.16,18.64l0,.1-.23.43.12.09.31.24,0,0a23,23,0,0,0,3.54,2l.54.27.07,0,1.47.71.45.22,2,1,.85.41a59.35,59.35,0,0,0,6.92-12.77c.79-2.23,1.59-4.47,2.39-6.7l.13-.34Zm-.47-.28c-1.28,3.34-2.26,6.82-3.77,10.07A72.53,72.53,0,0,1,58,25.46l-1.9-.93.18-.85-.44.72-1.4-.67q3.42-4.35,6.43-9c2-3.07,3.91-6.39,4.33-10Z"/><path class="cls-3" d="M60.35,29.1a4.92,4.92,0,0,0-.91-1.52,9.93,9.93,0,0,0-1.53-1.43c-.17-.13-.33-.26-.51-.38h0c-.45-.33-.92-.62-1.39-.9h0l-.33-.19-.15-.09-1.24-.68-.12-.06a43.1,43.1,0,0,0-4.64-2.11h0l-.14-.06h0l-1-.36a3.63,3.63,0,0,0-3.09,0,4.83,4.83,0,0,0-1.89,2.42c-.5,1.2-1,2.41-1.49,3.61s-.9,2.64-1.33,4-.86,2.64-1.34,3.94a13.82,13.82,0,0,0-1.09,3c-.14,1.22.94,1.94,1.78,2.61a27.09,27.09,0,0,0,2.79,2l0,0,.49.31,1,.55c.71.4,1.45.76,2.2,1.09L47,45a2.76,2.76,0,0,0,2.79,0l0,0h0l0,0c.45-.45.9-.9,1.36-1.33s1-.81,1.48-1.29a12.94,12.94,0,0,0,.82-1.26c.39-.55.82-1.06,1.25-1.56a23,23,0,0,0,2.14-2.77c.73-1.16,1.55-2.2,2.38-3.29a5.44,5.44,0,0,0,1.3-3.1A3.55,3.55,0,0,0,60.35,29.1Zm-1.64,4.25a29.77,29.77,0,0,0-2.15,3,24.6,24.6,0,0,1-2.25,2.94c-.34.4-.69.81-1,1.23s-.62,1.07-1,1.52a15.44,15.44,0,0,1-1.36,1.19q-.73.69-1.44,1.41h0a2.56,2.56,0,0,1-2.53-.19,2.36,2.36,0,0,1-.28-.12c-.73-.32-1.44-.67-2.14-1-.26-.15-.53-.29-.79-.45A27.69,27.69,0,0,1,41,41a10.57,10.57,0,0,1-1.89-1.54,1.51,1.51,0,0,1-.42-1,9.1,9.1,0,0,1,.91-2.56c.43-1.14.83-2.3,1.21-3.46s.74-2.33,1.12-3.49.89-2.25,1.36-3.38a10.36,10.36,0,0,1,1.53-3.13,2.82,2.82,0,0,1,3.33-.59,40.91,40.91,0,0,1,5.76,2.53l0,0,.57.3c.3.16.59.33.87.5l.5.3.52.33h0a19.49,19.49,0,0,1,2,1.54A4.48,4.48,0,0,1,60,29.9,4.62,4.62,0,0,1,58.71,33.35Z"/><path class="cls-3" d="M67.65,5.75,65.23,4.13l0,0L61.93,1.9c-.62-.41-1.32-1.1-2-.38a28.33,28.33,0,0,0-1.81,2.53,127.34,127.34,0,0,0-6.68,11.09c-1,1.86-2,3.74-3,5.6a.26.26,0,0,0,0,.33q.4.32.84.6l.46.3,0,0c1,.58,2,1.07,3,1.56l1.18.58.08,0,1.46.71.41.2,1.45.7.54.27a.27.27,0,0,0,.12,0h.06a.28.28,0,0,0,.19-.12A71.27,71.27,0,0,0,64,16.23c1.47-3.18,2.45-6.57,3.69-9.85l.12-.32A.28.28,0,0,0,67.65,5.75ZM63.42,16.17A72.53,72.53,0,0,1,58,25.46l-1.9-.93-.26-.13-1.4-.67-.15-.08-1-.46a30.43,30.43,0,0,1-3.69-2l-.57-.41c2.24-4.12,4.39-8.28,6.84-12.27.68-1.11,1.38-2.21,2.1-3.29q.48-.72,1-1.41a12.15,12.15,0,0,1,1.15-1.59.72.72,0,0,1,.79-.38l.43.29.16.11.71.47L63.92,3.9l1,.67.26.17,2,1.36C65.91,9.44,64.93,12.92,63.42,16.17Z"/><path class="cls-4" d="M61.62,5.79c.18-.3.34-.75.06-1s-.62,0-.88.2a16.72,16.72,0,0,0-5.91,10c-.06.34-.07,1,.43,1.05s.61-.56.76-.81c.61-1,1.21-2.08,1.82-3.11Z"/><path class="cls-4" d="M42.58,35.24A17.87,17.87,0,0,0,47.2,27c.31-1.24.13-2.78-1.24-1.4a11.5,11.5,0,0,0-2.22,4.08A19.28,19.28,0,0,0,43,32.49c-.1.45-.17.91-.24,1.37C42.68,34.1,42.73,35.08,42.58,35.24Z"/><path class="cls-5" d="M82.3,71c-.5.5-1,1-1.56,1.42l-1.66,1.47-3.3,2.9c-1,.93-2.11,1.85-3.12,2.82a25.44,25.44,0,0,0-2.79,3.08c-.11.14-.21.28-.31.43a.14.14,0,0,0,0,.14c-.75,1.09-1.59,4.47-2.06,5.7l-12.11-8.5h0a.15.15,0,0,0,.18-.11,19.71,19.71,0,0,1,1.14-2.87,20,20,0,0,1,1.58-2.64q.51-.72,1.08-1.38a.11.11,0,0,0,0-.08,31.5,31.5,0,0,1,1.91-2.56c.66-.89,1.24-1.84,1.95-2.7.4-.48.83-.93,1.26-1.39a.14.14,0,0,0,0-.16A9.88,9.88,0,0,0,66.44,62a30.31,30.31,0,0,0,.45-3.41c0-.36.07-.72.1-1.08v-.08a1.78,1.78,0,0,0-.08-.45q-.14-.63-.24-1.26c-.29-1.68-.48-3.37-.64-5.06-.09-.86-.16-1.73-.24-2.59,0-.42-.1-.85-.1-1.28A2.74,2.74,0,0,1,66,45.6a2.54,2.54,0,0,1,.16-.28,4.29,4.29,0,0,0,.2.86,5.42,5.42,0,0,0,.22.56,1,1,0,0,0,.41.47,3.65,3.65,0,0,0,.55.3,2.83,2.83,0,0,0,.62.21,1.09,1.09,0,0,0,.54,0h0a30.6,30.6,0,0,1,1.1,3.91c.32,1.43.65,2.85,1,4.28l.06.27s0,0,0,.07v0h0v0s0,.07,0,.1,0,.3.05.46c0,.41,0,.83.07,1.25,0,.81.06,1.62,0,2.43,0,.23,0,.46,0,.69s0,.67,0,1a19.57,19.57,0,0,0,.11,2l.06.5a0,0,0,0,1,0,0c0,.48.08,1,.13,1.44a.15.15,0,1,0,.29,0c0-.49-.09-1-.12-1.48a31.33,31.33,0,0,0,.52-4c.1-1.37.19-2.73.26-4.1a21.68,21.68,0,0,0,0-2.28.15.15,0,0,0,0-.1c-.16-1-.32-2-.46-3.06s-.3-2.15-.43-3.22-.26-2.13-.37-3.21c-.06-.53-.12-1.06-.17-1.59s-.11-1-.13-1.55a2.84,2.84,0,0,1,.89-2.43l0,0a2.43,2.43,0,0,0,0,.38,5.64,5.64,0,0,0,.17,1.29A3.1,3.1,0,0,0,72.18,42a2,2,0,0,0,.43.45,2.11,2.11,0,0,0,.64.31,1.75,1.75,0,0,0,.59.14.48.48,0,0,0,.29-.09c.22,1.59.49,3.18.82,4.75s.76,3.33,1.23,5a12.5,12.5,0,0,1,.58,2.7.12.12,0,0,0,0,.1,14.15,14.15,0,0,1-.15,2.34c-.12.87-.27,1.73-.34,2.61a12.32,12.32,0,0,0,0,1.49.15.15,0,0,0,.3,0,13.46,13.46,0,0,1,.15-2.61c.12-.86.26-1.73.33-2.6a10.73,10.73,0,0,0,0-1.5.11.11,0,0,0,0-.1s0-.07,0-.11a.14.14,0,0,0,.08,0,.15.15,0,0,0,.18-.12c.06-.63.13-1.26.17-1.9a14.29,14.29,0,0,0,0-1.85c-.08-1.21-.15-2.42-.15-3.64a19.89,19.89,0,0,1,.09-2s0-.05,0-.08c0-1.19.07-2.38.2-3.57.08-.6.17-1.21.3-1.81a5.47,5.47,0,0,1,.66-1.71,2.73,2.73,0,0,1,1-.92,2.58,2.58,0,0,0-.22.68,5.53,5.53,0,0,0,0,1.52,4.81,4.81,0,0,0,.31,1.4A1.89,1.89,0,0,0,80.4,42a1,1,0,0,0,.91-.12,8.35,8.35,0,0,0,0,1.58c0,.61.08,1.22.11,1.83.06,1.23.09,2.46.18,3.68,0,.69.12,1.38.23,2.07a.14.14,0,0,0,0,.07h0c.07.74.12,1.49.16,2.23s.08,1.49.1,2.23a27.72,27.72,0,0,1-.2,4l0,0a.19.19,0,0,0,0,.13.78.78,0,0,1,0,.16,13.56,13.56,0,0,0-.19,2.38.15.15,0,0,0,.3,0,10.36,10.36,0,0,1,.16-2.08c0-.17,0-.34.07-.52.19-.4.4-.81.61-1.2l0-.05c.54-1.17,1.08-2.33,1.61-3.5s1.08-2.33,1.61-3.5,1.07-2.33,1.61-3.49a14.36,14.36,0,0,1,1.83-3.18A5.55,5.55,0,0,1,92,42.91l.1,0-.14.16a5.72,5.72,0,0,0-.71,1.22,3.46,3.46,0,0,0-.39,1.28,1.33,1.33,0,0,0,.44,1.05,1,1,0,0,0,1,.13A69.39,69.39,0,0,0,89,54.38c-1,2.77-1.91,5.56-2.86,8.34q-.8,2.34-1.6,4.69a.11.11,0,0,0,0,.08.22.22,0,0,0,0,.08A7.72,7.72,0,0,1,82.3,71Z"/><path class="cls-5" d="M91.7,58.53c-.33.28-.71.52-1.06.78-.75.53-1.48,1.08-2.21,1.63a19.61,19.61,0,0,0-1.92,1.6c.4-1.14.79-2.29,1.18-3.43l.93-2.75a.14.14,0,0,0,.14,0A4.07,4.07,0,0,1,91,56.34a2.45,2.45,0,0,1,.54.18,1.75,1.75,0,0,1,.52.28.83.83,0,0,1,.24.85A1.73,1.73,0,0,1,91.7,58.53Z"/><path class="cls-6" d="M94.39,42.06a2.1,2.1,0,0,0-1.67.67,5.2,5.2,0,0,0-1,1.56,2.75,2.75,0,0,0-.32,1.27,1,1,0,0,0,.75,1,1.28,1.28,0,0,0,1-.43,7.06,7.06,0,0,0,1.6-3,1.54,1.54,0,0,0,.1-.51A.7.7,0,0,0,94.4,42Z"/><path class="cls-3" d="M94.42,41.91a2.41,2.41,0,0,0-2.07,1,6.05,6.05,0,0,0-.74,1.25,3.28,3.28,0,0,0-.36,1.29,1.3,1.3,0,0,0,.43,1,1,1,0,0,0,1.06.11,2.92,2.92,0,0,0,.93-.82,6.4,6.4,0,0,0,.74-1.26A11.2,11.2,0,0,0,95,43a.9.9,0,0,0-.49-1.12.15.15,0,0,0-.21.11l0,.05c-.06.18.23.24.29.06l0-.05-.22.1a.59.59,0,0,1,.35.34.83.83,0,0,1-.05.56,12.19,12.19,0,0,1-.42,1.15,4.69,4.69,0,0,1-1.33,1.94.82.82,0,0,1-.9.17.94.94,0,0,1-.43-.83,2.56,2.56,0,0,1,.29-1.08,7.3,7.3,0,0,1,.6-1.1,2.2,2.2,0,0,1,1.92-1.08C94.54,42.22,94.61,41.93,94.42,41.91Z"/><path class="cls-6" d="M81.57,36A2.18,2.18,0,0,0,80,37.2a3.61,3.61,0,0,0-.27,1.46A5.24,5.24,0,0,0,80.25,41a1.24,1.24,0,0,0,.9.77,1,1,0,0,0,.84-.56,2.83,2.83,0,0,0,.25-1A7.61,7.61,0,0,0,82,36.41c-.1-.22-.26-.46-.5-.44Z"/><path class="cls-3" d="M81.52,35.86a2.42,2.42,0,0,0-1.83,2,5.58,5.58,0,0,0,0,1.58A4.68,4.68,0,0,0,80,40.82a1.7,1.7,0,0,0,.89,1A1,1,0,0,0,82,41.48,2.82,2.82,0,0,0,82.4,40c0-.49.09-1,.1-1.47A6.56,6.56,0,0,0,82.33,37c-.12-.43-.31-1.15-.86-1.15-.19,0-.17.3,0,.3s.34.3.4.48a3.09,3.09,0,0,1,.18.59,5.47,5.47,0,0,1,.13,1.21,10.13,10.13,0,0,1-.06,1.23A6.08,6.08,0,0,1,82,40.91c-.12.37-.44.79-.88.71s-.65-.55-.8-.9a5.36,5.36,0,0,1-.34-2.51,2.5,2.5,0,0,1,.51-1.37,2.11,2.11,0,0,1,1.17-.69c.18,0,.09-.33-.1-.29Z"/><path class="cls-6" d="M73.17,37.79a1.32,1.32,0,0,0-1,1,3.18,3.18,0,0,0,0,1.44,4.53,4.53,0,0,0,.32,1.2,2,2,0,0,0,.79.93,3.09,3.09,0,0,0,.68.26.62.62,0,0,0,.5,0c.22-.12.21-.44.17-.69a33,33,0,0,0-.72-3.42,1.4,1.4,0,0,0-.16-.4.59.59,0,0,0-.68-.17Z"/><path class="cls-3" d="M73.12,37.65A1.71,1.71,0,0,0,72,39.44a5.37,5.37,0,0,0,.17,1.32,3.07,3.07,0,0,0,.52,1.2,2.14,2.14,0,0,0,1,.72c.34.11.82.26,1-.15A1,1,0,0,0,74.8,42c0-.24-.08-.48-.12-.72-.08-.47-.18-.95-.28-1.42L74.22,39a7.44,7.44,0,0,0-.22-.81.73.73,0,0,0-1-.45l.16.24.09-.13c.11-.16-.11-.36-.22-.2l-.09.13c-.08.11,0,.31.15.24a.48.48,0,0,1,.42,0,.78.78,0,0,1,.25.48c.1.38.2.77.28,1.16A16.21,16.21,0,0,1,74.5,42c0,.15,0,.4-.14.47s-.36,0-.51-.08a1.84,1.84,0,0,1-.95-.62,3.83,3.83,0,0,1-.63-2c-.06-.72.12-1.66.94-1.83C73.4,37.89,73.31,37.61,73.12,37.65Z"/><path class="cls-6" d="M68.58,47.45a1.32,1.32,0,0,0,.28,0,.44.44,0,0,0,.33-.13.52.52,0,0,0,0-.44l-.83-2.45a2.58,2.58,0,0,0-.34-.71.88.88,0,0,0-.51-.31,1.5,1.5,0,0,0-.82,1.32A3.71,3.71,0,0,0,67,46.32a1.37,1.37,0,0,0,.27.49,1.3,1.3,0,0,0,.41.28A3.14,3.14,0,0,0,68.58,47.45Z"/><path class="cls-3" d="M68.55,47.6c.29,0,.74,0,.82-.32a.91.91,0,0,0-.07-.49c-.08-.23-.15-.45-.23-.67-.14-.42-.28-.84-.43-1.26a5.4,5.4,0,0,0-.42-1.07c-.15-.25-.52-.62-.84-.47a1.51,1.51,0,0,0-.67.7,2.72,2.72,0,0,0,0,2,1.86,1.86,0,0,0,.59,1,3.36,3.36,0,0,0,1.21.53.15.15,0,0,0,.06-.3,3.22,3.22,0,0,1-.86-.34,1.12,1.12,0,0,1-.38-.26,1.41,1.41,0,0,1-.22-.4,3.5,3.5,0,0,1-.31-1.71,1.57,1.57,0,0,1,.32-.72,1.31,1.31,0,0,1,.28-.24.15.15,0,0,1,.18,0,.8.8,0,0,1,.21.15,2,2,0,0,1,.39.79l.35,1,.37,1.1a1.19,1.19,0,0,1,.14.52c0,.18-.34.13-.47.11S68.36,47.57,68.55,47.6Z"/><path class="cls-3" d="M82.33,59.45a.15.15,0,0,0,0,.13l0,.2a14,14,0,0,0-.19,2.33.15.15,0,0,0,.3,0A11.48,11.48,0,0,1,82.58,60l.06-.48c.2-.41.41-.82.62-1.22l0,0,3.21-7,1.59-3.47a15.15,15.15,0,0,1,1.83-3.2,5.42,5.42,0,0,1,2.83-1.92c.19,0,.09-.33-.09-.28-2.26.55-3.6,2.66-4.54,4.64C87,49.37,86,51.74,84.87,54.1L83.07,58h0l-.33.63c0-.26,0-.52.07-.78a40.37,40.37,0,0,0,0-4.4c0-.84-.1-1.68-.18-2.51a.14.14,0,0,0,0-.07h0c-.36-2.41-.31-4.86-.5-7.29a8.62,8.62,0,0,1,0-2c0-.19-.26-.25-.29-.06a7.15,7.15,0,0,0,0,1.79c0,.61.09,1.22.12,1.83,0,1.22.08,2.45.17,3.68,0,.7.13,1.4.23,2.1a.09.09,0,0,0,0,.06v0c.14,1.47.22,3,.25,4.43a28.14,28.14,0,0,1-.2,4Z"/><path class="cls-3" d="M77.53,54.94a.17.17,0,0,0-.06-.11s0-.08,0-.12a.14.14,0,0,0,.26-.05c0-.62.12-1.24.16-1.86a13.83,13.83,0,0,0,0-1.82c-.08-1.22-.16-2.44-.16-3.65,0-.71,0-1.41.09-2.11a.17.17,0,0,0,0-.07c0-1.18.07-2.36.2-3.53.07-.61.17-1.22.3-1.82a5.3,5.3,0,0,1,.63-1.69A2.54,2.54,0,0,1,80.24,37c.18-.06.09-.35-.09-.29a3.47,3.47,0,0,0-2.06,2.55,18.06,18.06,0,0,0-.55,3.8c0,.73-.06,1.47-.08,2.21a0,0,0,0,0,0,0,27.08,27.08,0,0,0,0,3.49c0,.61.06,1.22.1,1.84s.1,1.21.08,1.82-.1,1.38-.17,2.07A15.15,15.15,0,0,0,77,52.75c-.24-.81-.46-1.63-.67-2.45q-.64-2.5-1.09-5.07c-.17-.95-.31-1.91-.44-2.86,0-.19-.33-.18-.3,0a70,70,0,0,0,2.09,10,11.85,11.85,0,0,1,.58,2.69c0,.05,0,.08,0,.1.08,2.16-.63,4.28-.51,6.44a.15.15,0,0,0,.3,0C76.9,59.39,77.68,57.19,77.53,54.94Z"/><path class="cls-3" d="M71.85,64.63a29.92,29.92,0,0,0,.52-4c.11-1.36.19-2.73.26-4.09a19.27,19.27,0,0,0,0-2.28.1.1,0,0,0,0-.09c-.32-2.07-.62-4.15-.88-6.23-.13-1.06-.26-2.11-.37-3.17s-.25-2.08-.3-3.12.15-2.23,1.15-2.7c.17-.08.08-.37-.09-.29a2.58,2.58,0,0,0-1.34,2.15,8.69,8.69,0,0,0,0,1.53c.06.55.11,1.11.17,1.66.23,2.2.49,4.4.8,6.59.17,1.24.36,2.48.55,3.72l0,.07a34.57,34.57,0,0,1-.12,3.94c-.09,1.35-.16,2.71-.32,4,0,.34-.08.68-.14,1,0-.1,0-.19,0-.28A.14.14,0,0,0,71.7,63a21.55,21.55,0,0,1,0-2.41,21.87,21.87,0,0,0,0-2.29,14,14,0,0,0-.16-2.24c-.13-.67-.3-1.33-.45-2l-.48-2.13a34.8,34.8,0,0,0-1.27-4.6c-.07-.18-.36-.09-.29.09a31.52,31.52,0,0,1,1.15,4l1,4.25A12.22,12.22,0,0,1,71.4,58c0,.81.06,1.63,0,2.44,0,.65-.07,1.3-.06,1.95a21.88,21.88,0,0,0,.18,2.28,0,0,0,0,0,0,0c0,.48.07,1,.12,1.45,0,.19.32.17.3,0C71.93,65.61,71.89,65.12,71.85,64.63Z"/><path class="cls-3" d="M66.87,61.9a33,33,0,0,0,.46-3.42l.09-1.11a1.89,1.89,0,0,0-.06-.47q-.14-.63-.24-1.26c-.3-1.68-.49-3.37-.65-5.07-.1-1-.18-1.92-.27-2.88a6.63,6.63,0,0,1,0-1.41A2.64,2.64,0,0,1,66.7,45c.12-.15-.1-.35-.22-.2A3.16,3.16,0,0,0,65.84,47c.07.86.16,1.72.23,2.58.16,1.7.33,3.41.59,5.11.07.42.14.85.22,1.27s.13.82.24,1.22c0,0,0,0,0,0a.71.71,0,0,1,0,.14c0,.17,0,.34,0,.51-.1,1.1-.2,2.2-.38,3.28a10.16,10.16,0,0,1-2,5.11.14.14,0,0,0,0,.16A21.71,21.71,0,0,0,62.59,69c-.32.45-.63.91-1,1.36s-.68.89-1,1.33a13.73,13.73,0,0,0-1.08,1.54,19.89,19.89,0,0,0-3.22,5.29c-.22.55-.42,1.1-.6,1.67-.05.19.24.24.3.06a19.55,19.55,0,0,1,3.79-6.89.16.16,0,0,0,0-.07c.56-.92,1.28-1.73,1.92-2.6S63,68.83,63.7,68c.4-.48.83-.93,1.26-1.38a.14.14,0,0,0,0-.17A9.87,9.87,0,0,0,66.87,61.9Z"/><path class="cls-3" d="M93,57.54a1.14,1.14,0,0,0-.21-1,2.28,2.28,0,0,0-1-.59,4.5,4.5,0,0,0-2.62,0c.6-1.75,1.23-3.5,1.95-5.22.63-1.51,1.32-3,2.05-4.46.09-.18-.18-.31-.26-.14a69.46,69.46,0,0,0-3.45,8.09c-1,2.76-1.9,5.54-2.85,8.31-.54,1.58-1.07,3.16-1.61,4.73a.14.14,0,0,0,0,.09.12.12,0,0,0,0,.08,7.72,7.72,0,0,1-2.23,3.42c-1,1-2.13,1.93-3.2,2.88l-3.32,2.92c-1,.92-2.09,1.83-3.1,2.8A25.12,25.12,0,0,0,70,83a.15.15,0,0,0,0,.13,17,17,0,0,0-2.43,5.38.15.15,0,0,0,.3.06,16.64,16.64,0,0,1,2.49-5.45.14.14,0,0,0,0-.12,37.61,37.61,0,0,1,5.74-5.82l3.33-2.94c1.09-1,2.21-1.9,3.26-2.9a8.31,8.31,0,0,0,2.54-3.8.11.11,0,0,0,0-.1.18.18,0,0,0,0-.07L86.74,63a.16.16,0,0,0,.1,0A13.21,13.21,0,0,1,89,61.08c.77-.6,1.56-1.18,2.35-1.74S92.87,58.4,93,57.54Zm-1,.94c-.35.28-.73.53-1.09.79-.72.52-1.44,1-2.15,1.59A16.24,16.24,0,0,0,87,62.42L88.12,59c.31-.92.62-1.84.94-2.76a.13.13,0,0,0,.14,0,4,4,0,0,1,2.26-.05,2.72,2.72,0,0,1,1,.45.86.86,0,0,1,.23.9A1.81,1.81,0,0,1,92,58.48Z"/><path class="cls-6" d="M90,60.28a12.73,12.73,0,0,0,2.79-1.61,3.48,3.48,0,0,0,.65-.62,1.29,1.29,0,0,0,.28-.84.76.76,0,0,0-.11-.36,1.16,1.16,0,0,0-.93-.36s1.54,1.15-2.35,3.42Z"/><path class="cls-3" d="M90,60.42a11.65,11.65,0,0,0,3.09-1.84,1.72,1.72,0,0,0,.74-1.42c-.07-.64-.66-.78-1.2-.82a.16.16,0,0,0-.09.27.67.67,0,0,1,.25.55,1.35,1.35,0,0,1-.27.75A4.79,4.79,0,0,1,91.44,59c-.37.28-.76.51-1.15.75a3.42,3.42,0,0,0-.42.43c-.13.14.1.35.23.2a1.76,1.76,0,0,1,.38-.39,7.74,7.74,0,0,0,1.08-.71,5.06,5.06,0,0,0,1.22-1.18A1.37,1.37,0,0,0,93,56.62a.78.78,0,0,0-.2-.24l-.09.26a1.23,1.23,0,0,1,.71.2.66.66,0,0,1,.15.66,2.23,2.23,0,0,1-1,1.14,12.17,12.17,0,0,1-2.62,1.5C89.76,60.21,89.85,60.5,90,60.42Z"/><path class="cls-5" d="M17.76,80.89c.5.49,1,1,1.56,1.41L21,83.76l3.31,2.9c1.05.92,2.11,1.84,3.12,2.8a26.21,26.21,0,0,1,2.8,3.07c.1.14.21.28.31.43a.17.17,0,0,1,0,.14c.75,1.09,1.6,4.46,2.07,5.7l12.09-8.55h0a.15.15,0,0,1-.18-.12,19.64,19.64,0,0,0-1.15-2.86,20.7,20.7,0,0,0-1.58-2.64c-.34-.47-.7-.93-1.08-1.37a.2.2,0,0,1,0-.08c-.55-.91-1.27-1.7-1.9-2.56s-1.26-1.83-2-2.69c-.4-.48-.83-.93-1.26-1.38a.12.12,0,0,1,0-.16,9.82,9.82,0,0,1-1.91-4.58,32.48,32.48,0,0,1-.46-3.41L33,67.33v-.08a1.86,1.86,0,0,1,.08-.45c.09-.41.17-.83.24-1.25.29-1.68.48-3.38.64-5.07.08-.86.15-1.73.23-2.59,0-.43.09-.85.09-1.28a2.6,2.6,0,0,0-.26-1.17,2.54,2.54,0,0,0-.16-.28,4.29,4.29,0,0,1-.2.86,5.42,5.42,0,0,1-.22.56,1.1,1.1,0,0,1-.4.48,6,6,0,0,1-.56.3,2.67,2.67,0,0,1-.62.21,1.1,1.1,0,0,1-.54,0h0a31.07,31.07,0,0,0-1.1,3.91l-1,4.29c0,.09,0,.18-.05.27a.14.14,0,0,0,0,.07v0h0v0s0,.07,0,.1,0,.3,0,.46c0,.41-.06.83-.07,1.25,0,.81-.06,1.62,0,2.43,0,.23,0,.46,0,.69s0,.67,0,1a19.57,19.57,0,0,1-.11,2l-.06.5s0,0,0,0l-.12,1.44c0,.2-.32.18-.3,0,.05-.5.09-1,.12-1.48a30,30,0,0,1-.52-4c-.11-1.36-.2-2.73-.27-4.09a21.87,21.87,0,0,1,0-2.29.13.13,0,0,1,0-.09c.16-1,.31-2.05.46-3.07s.29-2.14.42-3.22.25-2.14.36-3.21c.06-.53.11-1.06.17-1.6s.11-1,.12-1.54a2.81,2.81,0,0,0-.89-2.43l0,0a2.43,2.43,0,0,1,0,.38,6.24,6.24,0,0,1-.16,1.29,3.4,3.4,0,0,1-.49,1.18,2,2,0,0,1-.43.44,2.26,2.26,0,0,1-.64.32,2,2,0,0,1-.59.14.48.48,0,0,1-.29-.09c-.22,1.6-.49,3.18-.81,4.75s-.75,3.33-1.22,5a12.63,12.63,0,0,0-.58,2.7.11.11,0,0,1-.05.1,15.17,15.17,0,0,0,.16,2.34c.12.87.27,1.74.34,2.61a10.59,10.59,0,0,1,0,1.49.15.15,0,0,1-.3,0,13.37,13.37,0,0,0-.16-2.61c-.12-.87-.27-1.74-.33-2.61a10.59,10.59,0,0,1,0-1.49.11.11,0,0,1,.06-.11.41.41,0,0,1,0-.11.1.1,0,0,1-.08,0,.14.14,0,0,1-.18-.11c-.06-.64-.14-1.27-.17-1.9a14.25,14.25,0,0,1,0-1.85c.08-1.21.15-2.43.15-3.64,0-.69,0-1.37-.09-2.05a.16.16,0,0,1,0-.07,35.26,35.26,0,0,0-.21-3.57c-.07-.61-.17-1.22-.3-1.82a5.42,5.42,0,0,0-.66-1.7,2.73,2.73,0,0,0-1-.92,3,3,0,0,1,.22.68,5.53,5.53,0,0,1,0,1.52,5.15,5.15,0,0,1-.3,1.4,1.89,1.89,0,0,1-.87,1.12.92.92,0,0,1-.92-.12,7.59,7.59,0,0,1,0,1.58c0,.62-.08,1.23-.11,1.84-.06,1.23-.08,2.45-.17,3.68,0,.69-.12,1.39-.22,2.07,0,0,0,0,0,.07v0c-.07.74-.11,1.48-.15,2.22s-.08,1.49-.09,2.23a26.28,26.28,0,0,0,.21,4l0,0a.15.15,0,0,1,0,.13s0,.1,0,.16a13.38,13.38,0,0,1,.2,2.37.15.15,0,0,1-.3,0,12,12,0,0,0-.16-2.07c0-.18,0-.35-.07-.52-.2-.41-.41-.81-.62-1.21l0,0-1.62-3.49-1.62-3.49c-.53-1.16-1.07-2.32-1.61-3.49a14.49,14.49,0,0,0-1.84-3.17,5.46,5.46,0,0,0-2.44-1.78l-.1,0,.14.16a6.21,6.21,0,0,1,.72,1.22,3.33,3.33,0,0,1,.38,1.28,1.31,1.31,0,0,1-.43,1.05,1,1,0,0,1-1,.13A70.5,70.5,0,0,1,11,64.31c1,2.77,1.91,5.55,2.87,8.33l1.6,4.68a.14.14,0,0,1,0,.09.16.16,0,0,1,.05.08A7.68,7.68,0,0,0,17.76,80.89Z"/><path class="cls-5" d="M8.33,68.47c.33.28.71.52,1.07.77.74.53,1.48,1.08,2.21,1.63a16.19,16.19,0,0,1,1.91,1.6c-.39-1.15-.78-2.29-1.18-3.44l-.93-2.74a.14.14,0,0,1-.15,0,4.25,4.25,0,0,0-2.24,0,3.86,3.86,0,0,0-.54.19,1.82,1.82,0,0,0-.51.28.84.84,0,0,0-.24.85A1.73,1.73,0,0,0,8.33,68.47Z"/><path class="cls-6" d="M5.61,52a2.09,2.09,0,0,1,1.67.66,5,5,0,0,1,1,1.56,2.86,2.86,0,0,1,.33,1.27,1,1,0,0,1-.75,1,1.25,1.25,0,0,1-1-.43,7,7,0,0,1-1.61-3,1.44,1.44,0,0,1-.1-.5A.71.71,0,0,1,5.6,52Z"/><path class="cls-3" d="M5.58,51.86a2.41,2.41,0,0,1,2.07,1,6.05,6.05,0,0,1,.74,1.25,3.05,3.05,0,0,1,.37,1.29,1.34,1.34,0,0,1-.43,1,1,1,0,0,1-1.06.11,2.61,2.61,0,0,1-.93-.82,5.87,5.87,0,0,1-.74-1.26A9.9,9.9,0,0,1,5,52.94a.9.9,0,0,1,.49-1.12.15.15,0,0,1,.21.1l0,0c.06.19-.23.25-.29.07l0-.06.21.11a.6.6,0,0,0-.34.34.83.83,0,0,0,0,.56,11.08,11.08,0,0,0,.42,1.14,4.71,4.71,0,0,0,1.34,1.95.83.83,0,0,0,.9.16.94.94,0,0,0,.43-.83,2.68,2.68,0,0,0-.3-1.08,6.51,6.51,0,0,0-.6-1.1,2.24,2.24,0,0,0-1.92-1.08C5.45,52.17,5.39,51.88,5.58,51.86Z"/><path class="cls-6" d="M18.41,45.9a2.19,2.19,0,0,1,1.53,1.2,3.38,3.38,0,0,1,.28,1.45,5.18,5.18,0,0,1-.48,2.36,1.19,1.19,0,0,1-.9.76,1,1,0,0,1-.84-.55,2.82,2.82,0,0,1-.24-1A7.38,7.38,0,0,1,18,46.31c.09-.22.26-.46.49-.44"/><path class="cls-3" d="M18.46,45.76a2.37,2.37,0,0,1,1.83,2,5.16,5.16,0,0,1,0,1.57A5,5,0,0,1,20,50.71a1.81,1.81,0,0,1-.89,1.06A1,1,0,0,1,18,51.38a2.8,2.8,0,0,1-.4-1.45c-.05-.49-.09-1-.1-1.46a6,6,0,0,1,.17-1.59c.11-.44.3-1.16.85-1.17.19,0,.18.3,0,.31s-.34.3-.41.48a5.76,5.76,0,0,0-.18.59,5.46,5.46,0,0,0-.12,1.21,10.13,10.13,0,0,0,.06,1.23A5.66,5.66,0,0,0,18,50.82c.11.36.44.78.87.69s.66-.54.8-.89a5.28,5.28,0,0,0,.34-2.52,2.46,2.46,0,0,0-.52-1.37,2.06,2.06,0,0,0-1.16-.68c-.19,0-.1-.33.09-.29Z"/><path class="cls-6" d="M26.82,47.66a1.34,1.34,0,0,1,1,1,3.23,3.23,0,0,1,0,1.45,4.35,4.35,0,0,1-.31,1.19,2,2,0,0,1-.79.93,2.84,2.84,0,0,1-.68.27.67.67,0,0,1-.5,0c-.22-.13-.21-.45-.18-.7a33.52,33.52,0,0,1,.72-3.42.94.94,0,0,1,.16-.4.57.57,0,0,1,.68-.17Z"/><path class="cls-3" d="M26.86,47.51A1.71,1.71,0,0,1,28,49.3a5.37,5.37,0,0,1-.17,1.32,3.05,3.05,0,0,1-.51,1.2,2.11,2.11,0,0,1-1.06.72c-.33.12-.81.27-1-.13a.92.92,0,0,1-.07-.59c0-.24.07-.48.11-.71.09-.48.18-1,.28-1.43l.18-.77A7.44,7.44,0,0,1,26,48.1a.75.75,0,0,1,1-.46l-.16.25-.09-.13c-.11-.16.11-.36.22-.21l.09.14c.07.1,0,.3-.16.24a.43.43,0,0,0-.41,0,.78.78,0,0,0-.25.48c-.1.38-.2.77-.28,1.16a17.77,17.77,0,0,0-.43,2.29c0,.15,0,.4.14.47s.37,0,.51-.08a1.87,1.87,0,0,0,1-.62,3.94,3.94,0,0,0,.62-2c.06-.72-.12-1.65-.95-1.82C26.58,47.76,26.68,47.47,26.86,47.51Z"/><path class="cls-6" d="M31.43,57.3a1.42,1.42,0,0,1-.29,0,.38.38,0,0,1-.32-.13.49.49,0,0,1,0-.44l.82-2.45a2.58,2.58,0,0,1,.34-.71.84.84,0,0,1,.5-.31,1.47,1.47,0,0,1,.83,1.31A3.71,3.71,0,0,1,33,56.16a1.51,1.51,0,0,1-.27.5,1.49,1.49,0,0,1-.41.28A3.26,3.26,0,0,1,31.43,57.3Z"/><path class="cls-3" d="M31.46,57.45c-.3,0-.74,0-.83-.32a.92.92,0,0,1,.07-.49c.08-.22.16-.45.23-.67l.43-1.26a5.17,5.17,0,0,1,.42-1.07c.15-.25.52-.62.84-.47a1.47,1.47,0,0,1,.67.7,2.69,2.69,0,0,1,0,2,1.81,1.81,0,0,1-.58,1,3.22,3.22,0,0,1-1.21.54.15.15,0,0,1-.06-.3,3.18,3.18,0,0,0,.86-.35,1.34,1.34,0,0,0,.37-.25,1.36,1.36,0,0,0,.22-.41,3.38,3.38,0,0,0,.3-1.71,1.5,1.5,0,0,0-.31-.72,1,1,0,0,0-.28-.23c-.07,0-.09,0-.18,0a.62.62,0,0,0-.21.15,1.89,1.89,0,0,0-.39.79l-.35,1-.37,1.1a1.19,1.19,0,0,0-.14.52c0,.19.34.13.48.11S31.65,57.42,31.46,57.45Z"/><path class="cls-3" d="M17.7,69.35a.12.12,0,0,1,0,.13l0,.2A12.21,12.21,0,0,1,17.92,72a.15.15,0,0,1-.3,0,11.47,11.47,0,0,0-.16-2.11c0-.16-.05-.33-.07-.49-.2-.4-.4-.81-.62-1.21l0,0c-1.07-2.32-2.15-4.64-3.22-7-.54-1.15-1.07-2.3-1.6-3.46a15.12,15.12,0,0,0-1.84-3.19,5.41,5.41,0,0,0-2.83-1.91c-.19,0-.1-.33.09-.28,2.26.54,3.6,2.65,4.55,4.62,1.12,2.33,2.18,4.7,3.27,7.05L17,67.92h0l.33.62c0-.26-.05-.52-.07-.78a38,38,0,0,1,0-4.4c.05-.84.09-1.67.17-2.51a.11.11,0,0,1,0-.07h0c.35-2.41.3-4.86.48-7.29a8,8,0,0,0,0-2,.15.15,0,0,1,.3-.07,7.65,7.65,0,0,1,0,1.79c0,.61-.08,1.22-.11,1.83-.06,1.22-.09,2.45-.17,3.68,0,.7-.12,1.4-.23,2.1a.14.14,0,0,1,0,.07h0c-.14,1.47-.21,3-.25,4.44a29.55,29.55,0,0,0,.21,4Z"/><path class="cls-3" d="M22.49,64.82a.2.2,0,0,1,.06-.11s0-.08,0-.12-.25.1-.26,0c-.06-.61-.14-1.23-.18-1.85a16,16,0,0,1,0-1.83c.08-1.21.15-2.43.15-3.65,0-.7,0-1.41-.09-2.11a.13.13,0,0,1,0-.06c0-1.18-.07-2.36-.21-3.54-.07-.61-.17-1.21-.3-1.81A5.09,5.09,0,0,0,21.09,48a2.48,2.48,0,0,0-1.34-1.11.15.15,0,0,1,.09-.29,3.47,3.47,0,0,1,2.06,2.55,17.88,17.88,0,0,1,.56,3.79c0,.74.07,1.47.08,2.21v0a26.92,26.92,0,0,1,.05,3.48c0,.61-.06,1.23-.1,1.84s-.09,1.22-.07,1.82.1,1.39.17,2.07A13.74,13.74,0,0,1,23,62.63c.23-.81.46-1.63.67-2.45q.63-2.52,1.07-5.07c.17-1,.31-1.91.44-2.87,0-.19.32-.18.3,0A70.58,70.58,0,0,1,23.4,62.31a12.36,12.36,0,0,0-.57,2.7.14.14,0,0,1,0,.1c-.07,2.16.64,4.27.52,6.44a.15.15,0,0,1-.3,0C23.13,69.28,22.35,67.08,22.49,64.82Z"/><path class="cls-3" d="M28.19,74.49a30,30,0,0,1-.53-4c-.11-1.36-.19-2.73-.27-4.1a19.1,19.1,0,0,1,0-2.27.13.13,0,0,1,0-.1q.48-3.1.87-6.23c.13-1,.25-2.11.36-3.17s.25-2.08.29-3.12a2.67,2.67,0,0,0-1.15-2.7c-.17-.08-.08-.36.09-.28a2.55,2.55,0,0,1,1.34,2.13,7.91,7.91,0,0,1,0,1.54c-.05.55-.1,1.11-.16,1.66-.22,2.2-.49,4.4-.79,6.59-.17,1.25-.35,2.49-.55,3.73a.14.14,0,0,1,0,.06,37,37,0,0,0,.13,3.94c.09,1.36.16,2.71.32,4.06.05.34.09.67.14,1,0-.09,0-.18,0-.28a.15.15,0,0,1,.06-.11,19.22,19.22,0,0,0,0-2.4c0-.76,0-1.54,0-2.3a15.24,15.24,0,0,1,.16-2.24c.13-.67.3-1.33.45-2s.31-1.42.47-2.13a34.94,34.94,0,0,1,1.27-4.61.15.15,0,0,1,.28.1,31,31,0,0,0-1.14,4c-.32,1.42-.63,2.84-.95,4.25a13.24,13.24,0,0,0-.23,2.27c0,.81-.05,1.63,0,2.44,0,.65.07,1.3.06,2a19.27,19.27,0,0,1-.17,2.28,0,0,0,0,1,0,0c0,.48-.07,1-.12,1.45a.15.15,0,1,1-.29,0Z"/><path class="cls-3" d="M33.17,71.74a29.92,29.92,0,0,1-.47-3.42c0-.36-.07-.73-.1-1.1a1.84,1.84,0,0,1,.06-.47q.14-.63.24-1.26c.3-1.68.48-3.38.65-5.08.09-1,.17-1.92.25-2.87a6.14,6.14,0,0,0,.05-1.42,2.64,2.64,0,0,0-.55-1.31c-.12-.15.1-.35.22-.2a3.16,3.16,0,0,1,.64,2.26c-.06.86-.15,1.72-.23,2.58-.15,1.71-.32,3.41-.57,5.11-.07.43-.14.85-.22,1.28a10,10,0,0,1-.24,1.21s0,0,0,0,0,.1,0,.14,0,.34.05.51c.1,1.1.2,2.2.39,3.29a10,10,0,0,0,2,5.1.16.16,0,0,1,0,.16,22.58,22.58,0,0,1,2.09,2.49c.32.45.63.91,1,1.36s.68.88,1,1.32A13.81,13.81,0,0,1,40.53,83a19.71,19.71,0,0,1,3.23,5.28c.22.54.42,1.1.6,1.67.06.18-.24.24-.3.06a19.27,19.27,0,0,0-3.81-6.87.13.13,0,0,1,0-.08c-.56-.92-1.29-1.73-1.93-2.59s-1.24-1.82-1.95-2.67c-.39-.47-.82-.92-1.25-1.37a.16.16,0,0,1,0-.17A9.87,9.87,0,0,1,33.17,71.74Z"/><path class="cls-3" d="M8.66,69.28c.8.56,1.58,1.14,2.36,1.73a13.15,13.15,0,0,1,2.18,1.9.12.12,0,0,0,.1,0l1.48,4.3a.18.18,0,0,0,.05.07.09.09,0,0,0,0,.09,8.39,8.39,0,0,0,2.54,3.8c1.06,1,2.18,1.93,3.27,2.88L24,87a38.06,38.06,0,0,1,5.75,5.81.15.15,0,0,0,0,.11,16.2,16.2,0,0,1,2.51,5.45c0,.18.34.12.3-.06A16.8,16.8,0,0,0,30.11,93a.16.16,0,0,0,0-.13A25.12,25.12,0,0,0,27,89.34c-1-1-2.06-1.87-3.11-2.79l-3.32-2.91c-1.07-.94-2.18-1.86-3.21-2.86a7.67,7.67,0,0,1-2.23-3.42.16.16,0,0,0,0-.07.14.14,0,0,0,0-.09l-1.62-4.72c-.95-2.77-1.88-5.55-2.86-8.31a72,72,0,0,0-3.47-8.08.15.15,0,0,0-.27.14Q8,58.42,8.92,60.69c.72,1.71,1.35,3.46,2,5.21a4.5,4.5,0,0,0-2.62,0,2.28,2.28,0,0,0-1,.59,1.16,1.16,0,0,0-.21,1C7.16,68.34,8,68.81,8.66,69.28ZM7.31,67.52a.84.84,0,0,1,.23-.9,2.59,2.59,0,0,1,1-.46,4.13,4.13,0,0,1,2.26,0,.13.13,0,0,0,.14,0l.95,2.76,1.17,3.42a15.52,15.52,0,0,0-1.86-1.56c-.71-.54-1.42-1.07-2.15-1.58-.36-.27-.74-.51-1.09-.79A1.83,1.83,0,0,1,7.31,67.52Z"/><path class="cls-6" d="M10.05,70.22a13.21,13.21,0,0,1-2.8-1.61A3.14,3.14,0,0,1,6.6,68a1.29,1.29,0,0,1-.28-.84.73.73,0,0,1,.11-.36,1.13,1.13,0,0,1,.93-.36s-1.54,1.15,2.36,3.41Z"/><path class="cls-3" d="M10,70.36a11.89,11.89,0,0,1-3.09-1.83,1.75,1.75,0,0,1-.74-1.43c.07-.63.66-.78,1.19-.81a.15.15,0,0,1,.1.26.64.64,0,0,0-.25.55,1.41,1.41,0,0,0,.27.76A4.6,4.6,0,0,0,8.6,68.94c.36.28.76.5,1.14.75a2.09,2.09,0,0,1,.42.42c.13.15-.09.35-.22.21a1.8,1.8,0,0,0-.39-.39,10.56,10.56,0,0,1-1.08-.71,5.42,5.42,0,0,1-1.22-1.17,1.38,1.38,0,0,1-.19-1.49.83.83,0,0,1,.19-.23l.1.26a1.21,1.21,0,0,0-.72.2.67.67,0,0,0-.14.65,2.34,2.34,0,0,0,1,1.15,12.6,12.6,0,0,0,2.63,1.48C10.27,70.15,10.18,70.43,10,70.36Z"/></svg>